HIERARCHY
ROOT reference
{
  OFFSET 0 0 0
  CHANNELS 6 Xposition Yposition Zposition Zrotation Xrotation Yrotation
  JOINT Hips
  {
    OFFSET 26.1007 84.7754 115.976
    CHANNELS 6 Xposition Yposition Zposition Zrotation Xrotation Yrotation
    JOINT Spine
    {
      OFFSET 0 7.81434 0
      CHANNELS 6 Xposition Yposition Zposition Zrotation Xrotation Yrotation
      JOINT Spine1
      {
        OFFSET 0 23.3781 0
        CHANNELS 6 Xposition Yposition Zposition Zrotation Xrotation Yrotation
        JOINT Neck
        {
          OFFSET 0 23.2821 2.11656
          CHANNELS 6 Xposition Yposition Zposition Zrotation Xrotation Yrotation
          JOINT Head
          {
            OFFSET 0 13.3416 -1.90594
            CHANNELS 6 Xposition Yposition Zposition Zrotation Xrotation Yrotation
            End Site
            {
              OFFSET 0 23.8242 0
            }
          }
        }
        JOINT LeftShoulder
        {
          OFFSET 3.82472 21.4916 -0.175476
          CHANNELS 6 Xposition Yposition Zposition Zrotation Xrotation Yrotation
          JOINT LeftArm
          {
            OFFSET 10.8239 0 0
            CHANNELS 6 Xposition Yposition Zposition Zrotation Xrotation Yrotation
            JOINT LeftForeArm
            {
              OFFSET 28.5356 0 0
              CHANNELS 6 Xposition Yposition Zposition Zrotation Xrotation Yrotation
              JOINT LeftHand
              {
                OFFSET 24.5315 0 0
                CHANNELS 6 Xposition Yposition Zposition Zrotation Xrotation Yrotation
                End Site
                {
                  OFFSET 14.2945 0 0
                }
              }
            }
          }
        }
        JOINT RightShoulder
        {
          OFFSET -3.77033 21.4916 -0.175476
          CHANNELS 6 Xposition Yposition Zposition Zrotation Xrotation Yrotation
          JOINT RightArm
          {
            OFFSET -10.8239 0 0
            CHANNELS 6 Xposition Yposition Zposition Zrotation Xrotation Yrotation
            JOINT RightForeArm
            {
              OFFSET -28.5356 0 0
              CHANNELS 6 Xposition Yposition Zposition Zrotation Xrotation Yrotation
              JOINT RightHand
              {
                OFFSET -24.5315 0 0
                CHANNELS 6 Xposition Yposition Zposition Zrotation Xrotation Yrotation
                End Site
                {
                  OFFSET -14.2945 0 0
                }
              }
            }
          }
        }
      }
    }
    JOINT LeftUpLeg
    {
      OFFSET 9.52968 0 0
      CHANNELS 6 Xposition Yposition Zposition Zrotation Xrotation Yrotation
      JOINT LeftLeg
      {
        OFFSET 0 -40.1884 0
        CHANNELS 6 Xposition Yposition Zposition Zrotation Xrotation Yrotation
        JOINT LeftFoot
        {
          OFFSET 0 -39.9954 0
          CHANNELS 6 Xposition Yposition Zposition Zrotation Xrotation Yrotation
          JOINT LeftToeBase
          {
            OFFSET 0 -6.19429 14.2945
            CHANNELS 6 Xposition Yposition Zposition Zrotation Xrotation Yrotation
            End Site
            {
              OFFSET 0 0 3.81187
            }
          }
        }
      }
    }
    JOINT RightUpLeg
    {
      OFFSET -9.52968 0 0
      CHANNELS 6 Xposition Yposition Zposition Zrotation Xrotation Yrotation
      JOINT RightLeg
      {
        OFFSET 0 -40.1884 0
        CHANNELS 6 Xposition Yposition Zposition Zrotation Xrotation Yrotation
        JOINT RightFoot
        {
          OFFSET 0 -39.9954 0
          CHANNELS 6 Xposition Yposition Zposition Zrotation Xrotation Yrotation
          JOINT RightToeBase
          {
            OFFSET 0 -6.19429 14.2945
            CHANNELS 6 Xposition Yposition Zposition Zrotation Xrotation Yrotation
            End Site
            {
              OFFSET 0 0 3.81187
            }
          }
        }
      }
    }
  }
}
MOTION
Frames:	10
Frame Time:	0.004
0 0 0 0 0 -0 -13.3273 80.1972 -205.006 -3.08876 -3.76568 -2.2382 -3.55271e-015 7.81434 0 0.537606 7.95364 0.7224 -3.55271e-015 23.3781 2.84217e-014 1.51999 17.5468 0.525185 0 23.2821 2.11656 2.88682 8.63682 0.969104 0 13.3416 -1.90594 -5.42889 15.1553 0.750384 3.82472 21.4916 -0.175476 9.85314 1.38152 18.2563 10.8239 -1.42109e-014 2.84217e-014 -35.9408 8.12629 -10.5535 28.5356 1.42109e-014 0 1.16122 -12.648 0.633837 24.5315 -1.42109e-014 0 1.12432 -12.6176 3.82351 -3.77033 21.4916 -0.175476 -8.98841 -2.22406 -3.46886 -10.8239 1.42109e-014 -2.84217e-014 27.434 9.86165 11.2327 -28.5356 1.42109e-014 2.84217e-014 -3.60662 -10.2459 -2.9445 -24.5315 -1.42109e-014 0 0.145841 -10.3379 -0.584306 9.52968 1.42109e-014 2.84217e-014 5.41732 -20.5471 6.78955 -1.77636e-015 -40.1884 2.84217e-014 -0.762442 44.8735 4.00203 0 -39.9954 0 -2.20284 -18.6292 -1.59217 0 -6.19429 14.2945 -3.72721e-016 1.98785e-016 7.95139e-016 -9.52968 1.42109e-014 0 6.26035 1.00588 1.99319 -3.55271e-015 -40.1884 0 -2.54423 14.5705 -1.85506 -7.10543e-015 -39.9954 0 15.5871 -15.8154 1.78667 -7.10543e-015 -6.19429 14.2945 -3.97569e-015 1.59028e-015 -0 
0 0 0 0 0 -0 -13.3226 80.1998 -205.003 -3.0781 -3.70086 -2.27994 0 7.81434 -2.84217e-014 0.526189 8.1191 0.708493 3.55271e-015 23.3781 0 1.41799 17.764 0.524243 0 23.2821 2.11656 2.94189 8.48243 1.00261 -1.77636e-015 13.3416 -1.90594 -5.45698 15.0404 0.771262 3.82472 21.4916 -0.175476 9.34049 1.81688 18.2905 10.8239 -1.42109e-014 2.84217e-014 -35.6979 8.81787 -11.1472 28.5356 1.42109e-014 0 1.24424 -13.0674 0.636561 24.5315 0 0 1.11826 -13.0369 3.92031 -3.77033 21.4916 -0.175476 -8.7319 -1.86961 -3.31399 -10.8239 -1.42109e-014 0 27.5476 10.2216 11.7589 -28.5356 0 -5.68434e-014 -3.69707 -10.5838 -2.97092 -24.5315 0 0 -0.181734 -10.677 -0.654195 9.52968 0 -2.84217e-014 5.46913 -20.8998 6.85509 -1.77636e-015 -40.1884 5.68434e-014 -0.882837 44.5101 3.94979 0 -39.9954 -2.84217e-014 -1.91583 -18.531 -1.35892 -3.55271e-015 -6.19429 14.2945 -4.96962e-017 -3.97569e-016 3.18055e-015 -9.52968 -1.42109e-014 0 6.24585 0.817257 2.16409 3.55271e-015 -40.1884 0 -2.48909 14.8456 -1.76013 -7.10543e-015 -39.9954 -2.84217e-014 15.6448 -15.9717 1.51129 3.55271e-015 -6.19429 14.2945 2.03754e-015 0 -3.97569e-016 
0 0 0 0 0 -0 -13.2872 80.1848 -204.988 -3.00043 -3.68457 -2.32529 0 7.81434 0 0.48444 8.33015 0.695878 0 23.3781 0 1.30443 17.96 0.523065 0 23.2821 2.11656 2.90075 8.49588 0.995087 0 13.3416 -1.90594 -5.37971 14.7286 0.752555 3.82472 21.4916 -0.175476 9.15162 1.9362 18.1011 10.8239 0 0 -35.8435 8.7518 -11.1908 28.5356 0 0 0.950198 -13.0426 0.387516 24.5315 1.42109e-014 0 1.50705 -12.9944 4.00819 -3.77033 21.4916 -0.175476 -8.46057 -1.64148 -3.0022 -10.8239 1.42109e-014 0 27.6143 10.1912 11.9727 -28.5356 2.84217e-014 2.84217e-014 -3.522 -10.7496 -2.76833 -24.5315 0 0 -0.446668 -10.8306 -0.68431 9.52968 1.42109e-014 0 5.38926 -21.1521 6.75691 0 -40.1884 0 -1.05194 44.0426 4.15677 3.55271e-015 -39.9954 0 -1.97996 -18.4906 -1.26789 -3.55271e-015 -6.19429 14.2945 1.30452e-016 0 7.95139e-016 -9.52968 -1.42109e-014 2.84217e-014 6.17686 0.713127 2.09839 -7.10543e-015 -40.1884 0 -2.57391 15.0021 -1.97614 0 -39.9954 0 15.7652 -15.9733 1.93631 0 -6.19429 14.2945 -4.47266e-016 0 -7.95139e-016 
0 0 0 0 0 -0 -13.2586 80.1758 -204.984 -2.95898 -3.61662 -2.37769 0 7.81434 0 0.444171 8.49998 0.695232 -3.55271e-015 23.3781 0 1.28543 18.1718 0.522635 0 23.2821 2.11656 2.79534 8.32719 1.03967 0 13.3416 -1.90594 -5.34628 14.6843 0.800536 3.82472 21.4916 -0.175476 8.58367 2.26699 18.0007 10.8239 -1.42109e-014 2.84217e-014 -35.6345 9.25456 -11.6122 28.5356 0 -5.68434e-014 1.0095 -13.3889 0.314817 24.5315 -1.42109e-014 0 1.62765 -13.334 4.16415 -3.77033 21.4916 -0.175476 -8.31592 -1.36566 -2.86359 -10.8239 1.42109e-014 0 27.7369 10.5317 12.4603 -28.5356 0 0 -3.62034 -11.0972 -2.76372 -24.5315 -1.42109e-014 2.84217e-014 -0.261413 -11.1817 -0.548963 9.52968 1.42109e-014 -2.84217e-014 5.36956 -21.4684 6.66217 0 -40.1884 0 -1.24152 43.5707 4.32391 -3.55271e-015 -39.9954 2.84217e-014 -2.32678 -18.6729 -1.37855 0 -6.19429 14.2945 2.11209e-016 -9.93923e-017 -7.95139e-016 -9.52968 1.42109e-014 0 6.16196 0.536895 2.06213 -3.55271e-015 -40.1884 -2.84217e-014 -2.67519 15.218 -1.82407 0 -39.9954 -2.84217e-014 15.7424 -16.0496 1.92727 0 -6.19429 14.2945 -5.66536e-015 7.95139e-016 -1.19271e-015 
0 0 0 0 0 -0 -13.2263 80.1696 -204.981 -2.91204 -3.53719 -2.42968 0 7.81434 0 0.381081 8.65024 0.712466 0 23.3781 -2.84217e-014 1.33023 18.3958 0.52594 0 23.2821 2.11656 2.59932 8.19816 1.06346 1.77636e-015 13.3416 -1.90594 -5.20702 14.5929 0.834394 3.82472 21.4916 -0.175476 8.18556 2.38998 17.7043 10.8239 -1.42109e-014 0 -35.7092 9.42513 -11.7714 28.5356 0 -5.68434e-014 1.03719 -13.4247 0.301327 24.5315 0 0 1.62255 -13.3692 4.2196 -3.77033 21.4916 -0.175476 -8.11507 -0.576732 -2.83549 -10.8239 -1.42109e-014 -2.84217e-014 27.6954 10.4713 13.3483 -28.5356 1.42109e-014 0 -3.67105 -11.404 -2.80664 -24.5315 2.13163e-014 0 -0.712987 -11.4877 -0.735541 9.52968 -1.42109e-014 0 5.33169 -21.7847 6.61881 -1.77636e-015 -40.1884 -2.84217e-014 -1.35801 43.021 4.449 0 -39.9954 0 -2.29758 -18.5188 -1.28337 -3.55271e-015 -6.19429 14.2945 -9.93923e-017 0 -1.59028e-015 -9.52968 1.42109e-014 0 6.14496 0.345682 2.02829 -3.55271e-015 -40.1884 -2.84217e-014 -2.78485 15.4318 -1.7692 0 -39.9954 0 16.1448 -16.2086 2.01289 -3.55271e-015 -6.19429 14.2945 -3.08116e-015 0 -7.95139e-016 
0 0 0 0 0 -0 -13.2164 80.1604 -205.004 -2.85525 -3.49267 -2.52305 -3.55271e-015 7.81434 0 0.239413 8.8964 0.756849 3.55271e-015 23.3781 0 1.44035 18.5962 0.539667 0 23.2821 2.11656 2.39801 7.96353 1.10059 -1.77636e-015 13.3416 -1.90594 -5.11566 14.5779 0.883736 3.82472 21.4916 -0.175476 7.64265 2.80008 17.6348 10.8239 0 0 -35.5464 10.2355 -12.3421 28.5356 0 0 1.21283 -13.9544 0.27982 24.5315 0 0 1.60879 -13.8994 4.24483 -3.77033 21.4916 -0.175476 -8.06465 -0.343563 -2.71515 -10.8239 0 0 27.8522 10.7277 13.8488 -28.5356 0 0 -3.77996 -11.6133 -2.83938 -24.5315 0 0 -0.590339 -11.7018 -0.64054 9.52968 0 0 5.32235 -22.1042 6.70055 -1.77636e-015 -40.1884 0 -1.3977 42.5566 4.44009 -3.55271e-015 -39.9954 0 -2.23921 -18.3642 -1.10168 0 -6.19429 14.2945 5.96354e-016 0 2.38542e-015 -9.52968 0 0 6.15168 0.115006 2.07003 0 -40.1884 -2.84217e-014 -2.91679 15.7551 -1.72353 0 -39.9954 0 15.912 -16.1914 2.05457 3.55271e-015 -6.19429 14.2945 8.44835e-015 2.38542e-015 -3.97569e-016 
0 0 0 0 0 -0 -13.1891 80.1506 -204.997 -2.80758 -3.43153 -2.56669 0 7.81434 -2.84217e-014 0.192231 9.07467 0.754695 0 23.3781 0 1.40928 18.7999 0.536703 0 23.2821 2.11656 2.27766 7.90399 1.11491 0 13.3416 -1.90594 -5.01033 14.3372 0.897394 3.82472 21.4916 -0.175476 7.1475 3.20825 17.4599 10.8239 0 2.84217e-014 -35.3638 10.7763 -12.7816 28.5356 -1.42109e-014 0 1.35177 -14.3587 0.24028 24.5315 0 0 1.63398 -14.3009 4.37392 -3.77033 21.4916 -0.175476 -7.86115 -0.0531735 -2.5215 -10.8239 0 0 27.8371 11.1627 14.3069 -28.5356 0 0 -3.84489 -12.0041 -2.80315 -24.5315 0 0 -0.761394 -12.0912 -0.757756 9.52968 0 0 5.27205 -22.3291 6.30896 -1.77636e-015 -40.1884 0 -1.78348 41.856 4.9109 0 -39.9954 0 -2.06588 -18.2506 -0.804245 0 -6.19429 14.2945 5.51738e-033 3.97569e-016 -7.95139e-016 -9.52968 1.42109e-014 0 6.14235 -0.107824 1.76329 -3.55271e-015 -40.1884 -2.84217e-014 -3.10234 16.0582 -1.35723 3.55271e-015 -39.9954 0 15.8683 -16.2575 2.08882 0 -6.19429 14.2945 -4.47266e-016 -1.59028e-015 -0 
0 0 0 0 0 -0 -13.1602 80.1382 -204.99 -2.75041 -3.36804 -2.61613 -3.55271e-015 7.81434 2.84217e-014 0.116773 9.22137 0.765325 0 23.3781 0 1.44134 19.1109 0.532155 0 23.2821 2.11656 2.12927 7.67227 1.144 0 13.3416 -1.90594 -4.9811 14.2517 0.931342 3.82472 21.4916 -0.175476 6.7182 3.37669 17.3101 10.8239 0 2.84217e-014 -35.294 10.9378 -13.1195 28.5356 -1.42109e-014 0 1.33947 -14.5796 0.161934 24.5315 -1.42109e-014 0 1.72874 -14.5169 4.41778 -3.77033 21.4916 -0.175476 -7.80561 0.170193 -2.38176 -10.8239 1.42109e-014 0 27.9564 11.3175 14.8383 -28.5356 0 0 -3.84196 -12.1344 -2.81183 -24.5315 0 0 -0.959232 -12.2201 -0.791525 9.52968 0 0 5.21462 -22.5986 6.27828 0 -40.1884 0 -1.81615 41.2309 4.90343 0 -39.9954 -2.84217e-014 -1.84837 -18.1291 -0.615052 -3.55271e-015 -6.19429 14.2945 -5.51738e-033 3.97569e-016 7.95139e-016 -9.52968 0 0 6.14829 -0.261265 1.66115 3.55271e-015 -40.1884 0 -3.29736 16.2132 -1.32527 0 -39.9954 0 16.0182 -16.293 2.28749 -3.55271e-015 -6.19429 14.2945 -1.83876e-015 -7.95139e-016 7.95139e-016 
0 0 0 0 0 -0 -13.1277 80.1269 -204.986 -2.68331 -3.28075 -2.65747 0 7.81434 0 0.0728907 9.36393 0.751189 -3.55271e-015 23.3781 0 1.39258 19.3765 0.519399 -3.55271e-015 23.2821 2.11656 1.9097 7.53227 1.14395 3.55271e-015 13.3416 -1.90594 -4.75985 14.0296 0.940868 3.82472 21.4916 -0.175476 6.27868 3.59925 17.1718 10.8239 -2.84217e-014 -2.84217e-014 -35.0364 11.9556 -13.4876 28.5356 0 0 1.46905 -15.1334 0.0573625 24.5315 2.84217e-014 0 1.75005 -15.0681 4.47365 -3.77033 21.4916 -0.175476 -7.71269 0.451522 -2.16289 -10.8239 -1.42109e-014 2.84217e-014 28.0688 11.5805 15.3041 -28.5356 1.42109e-014 0 -3.97394 -12.4749 -2.73978 -24.5315 0 0 -1.1812 -12.559 -0.864209 9.52968 1.42109e-014 -2.84217e-014 5.0976 -22.8336 6.29926 0 -40.1884 2.84217e-014 -1.68088 40.4803 4.79513 3.55271e-015 -39.9954 0 -1.69973 -17.9637 -0.548368 3.55271e-015 -6.19429 14.2945 -4.96962e-016 -7.95139e-016 -0 -9.52968 1.42109e-014 -2.84217e-014 6.12447 -0.483466 1.67068 -3.55271e-015 -40.1884 -2.84217e-014 -3.41249 16.4667 -1.31374 -3.55271e-015 -39.9954 0 15.9989 -16.348 2.34837 0 -6.19429 14.2945 2.13694e-015 0 -3.97569e-016 
0 0 0 0 0 -0 -13.0875 80.1043 -204.95 -2.61642 -3.27123 -2.68094 0 7.81434 0 0.0081696 9.53416 0.748472 0 23.3781 -2.84217e-014 1.41719 19.7005 0.503044 0 23.2821 2.11656 1.73089 7.26392 1.18085 1.77636e-015 13.3416 -1.90594 -4.67446 14.0595 0.992575 3.82472 21.4916 -0.175476 5.87383 3.71506 16.9308 10.8239 0 2.84217e-014 -34.8473 13.2026 -13.7541 28.5356 -1.42109e-014 0 1.74751 -15.8206 -0.0408264 24.5315 0 -2.84217e-014 1.67038 -15.7553 4.60355 -3.77033 21.4916 -0.175476 -7.58205 0.723537 -2.02242 -10.8239 0 0 28.0441 12.2719 15.9071 -28.5356 0 0 -4.31087 -12.8424 -2.88239 -24.5315 -1.42109e-014 -2.84217e-014 -0.946644 -12.9409 -0.9063 9.52968 -1.42109e-014 0 4.975 -22.9489 6.25205 1.77636e-015 -40.1884 0 -1.60545 39.6538 4.7184 0 -39.9954 0 -1.69671 -17.9351 -0.5087 -3.55271e-015 -6.19429 14.2945 -3.97569e-016 0 1.59028e-015 -9.52968 0 -2.84217e-014 6.04009 -0.632085 1.80072 -3.55271e-015 -40.1884 0 -3.3785 16.8095 -1.18722 0 -39.9954 2.84217e-014 15.8411 -16.5818 2.136 0 -6.19429 14.2945 2.03754e-015 -7.95139e-016 -7.95139e-016 
